<?xml version="1.0" encoding="UTF-8"?>
<svg width="154px" height="162px" viewBox="0 0 154 162" version="1.1" xmlns="http://www.w3.org/2000/svg" xmlns:xlink="http://www.w3.org/1999/xlink">
    <!-- Generator: Sketch 61 (89581) - https://sketch.com -->
    <title>Page 1</title>
    <desc>Created with Sketch.</desc>
    <g id="Page-1" stroke="none" stroke-width="1" fill="none" fill-rule="evenodd" stroke-linecap="round" stroke-linejoin="round">
        <g id="Rough-Homepage" transform="translate(-471.000000, -1744.000000)" stroke-width="4.35">
            <g id="Page-1" transform="translate(473.000000, 1746.000000)">
                <path d="M112.6453,113.1337 C134.3263,117.3077 148.9603,124.9497 148.9603,133.6767 C148.9603,146.8747 115.6533,157.5797 74.5683,157.5797 C33.4823,157.5797 0.1743,146.8747 0.1743,133.6767 C0.1743,124.7057 15.5693,116.9017 38.3063,112.8087" id="Stroke-1" stroke="#C4C7CA"></path>
                <path d="M74.5408,119.9081 C100.5098,119.9081 121.5618,125.5751 121.5618,132.5641 C121.5618,139.5541 100.5098,145.2201 74.5408,145.2201 C48.5718,145.2201 27.5198,139.5541 27.5198,132.5641 C27.5198,125.5751 48.5718,119.9081 74.5408,119.9081 Z" id="Stroke-3" stroke="#C4C7CA"></path>
                <line x1="74.5408" y1="132.6191" x2="74.5408" y2="22.3441" id="Stroke-5" stroke="#9FA617"></line>
                <path d="M39.1189,56.1933 C39.1189,56.1933 68.9309,64.3243 74.7029,83.1053" id="Stroke-7" stroke="#9FA617"></path>
                <path d="M48.3885,88.1728 C48.3885,88.1728 67.7655,91.6418 74.7305,109.5818" id="Stroke-9" stroke="#9FA617"></path>
                <path d="M110.8836,56.1933 C110.8836,56.1933 81.0716,64.3243 75.2996,83.1053" id="Stroke-11" stroke="#9FA617"></path>
                <path d="M101.615,88.1728 C101.615,88.1728 82.237,91.6418 75.272,109.5818" id="Stroke-13" stroke="#9FA617"></path>
                <path d="M75.0017,52.5614 C75.0017,52.5614 113.4847,47.9274 75.0017,0.1744" id="Stroke-15" stroke="#9FA617"></path>
                <path d="M74.7303,52.5614 C74.7303,52.5614 36.2473,47.9274 74.7303,0.1744" id="Stroke-17" stroke="#9FA617"></path>
                <path d="M55.2176,63.0234 C55.2176,63.0234 62.9416,36.8164 21.3146,48.4434" id="Stroke-19" stroke="#9FA617"></path>
                <path d="M55.1629,63.1855 C55.1629,63.1855 41.4499,86.8175 21.2599,48.6055" id="Stroke-21" stroke="#9FA617"></path>
                <path d="M96.1951,63.8896 C96.1951,63.8896 88.4701,37.6836 130.0981,49.3096" id="Stroke-23" stroke="#9FA617"></path>
                <path d="M96.2488,64.0527 C96.2488,64.0527 109.9628,87.6847 130.1528,49.4727" id="Stroke-25" stroke="#9FA617"></path>
                <path d="M59.5535,92.4277 C59.5535,92.4277 65.6245,71.7767 32.8595,80.9367" id="Stroke-27" stroke="#9FA617"></path>
                <path d="M59.5535,92.5361 C59.5535,92.5361 48.7135,111.1551 32.8595,81.0451" id="Stroke-29" stroke="#9FA617"></path>
                <path d="M91.8318,93.2138 C91.8318,93.2138 85.7608,72.5628 118.5258,81.7228" id="Stroke-31" stroke="#9FA617"></path>
                <path d="M91.8855,93.2138 C91.8855,93.2138 102.7265,111.8328 118.5805,81.7228" id="Stroke-33" stroke="#9FA617"></path>
            </g>
        </g>
    </g>
</svg>